<svg width="46" height="18" viewBox="0 0 46 18" fill="none" xmlns="http://www.w3.org/2000/svg">
<path d="M9.53519 17.096C10.2792 17.096 10.9752 16.544 11.3352 15.632C12.8952 11.576 14.4792 7.52 16.0632 3.464C16.4952 2.336 16.9272 2.12 17.7192 1.928C18.2472 1.736 18.5112 1.544 18.5112 1.016C18.5112 0.464 18.0312 0.199999 17.2632 0.199999C15.9912 0.223999 14.8872 0.223999 13.7352 0.199999C12.6552 0.199999 12.2472 0.439999 12.2472 1.064C12.2472 1.424 12.4392 1.736 12.9912 1.928C14.0232 2.144 14.3832 2.216 14.0472 3.176C12.9912 6.104 11.9352 9.032 10.8552 11.96C10.6152 12.608 10.3272 12.608 10.0872 11.936C9.03119 9.104 7.99919 6.272 6.96719 3.44C6.53519 2.264 6.91919 2.12 7.90319 1.904C8.43119 1.664 8.67119 1.376 8.67119 1.04C8.67119 0.487999 8.38319 0.199999 6.58319 0.199999H2.88719C1.18319 0.199999 0.487188 0.319999 0.487188 1.112C0.487188 1.592 0.727188 1.808 1.11119 1.952C1.99919 2.24 2.38319 2.48 2.83919 3.68C4.39919 7.64 5.98319 11.648 7.54319 15.632C7.95119 16.64 8.64719 17.096 9.46319 17.096H9.53519ZM19.4669 17H22.8989C23.7389 17 24.0989 16.664 24.0989 16.232C24.0989 15.872 23.8829 15.56 23.4509 15.464C22.4669 15.296 21.9149 15.152 22.0349 13.904L22.6589 6.584C22.6829 6.368 22.7789 6.296 22.8989 6.296C22.9709 6.296 23.0909 6.416 23.1869 6.656L27.4589 16.424C27.6029 16.736 27.7949 16.976 28.0589 16.976C28.2989 16.976 28.4669 16.76 28.6349 16.376L32.7389 6.656C32.8349 6.44 32.9069 6.296 33.0269 6.296C33.1229 6.296 33.2189 6.416 33.2429 6.584L33.7469 13.808C33.8189 14.96 33.5309 15.224 32.5229 15.464C32.2109 15.56 31.8509 15.848 31.8509 16.208C31.8509 16.808 32.4269 17 33.1469 17H38.6429C38.9549 17 39.6029 16.832 39.6029 16.184C39.6029 15.728 39.1469 15.512 38.8349 15.44C37.7789 15.2 37.5389 14.768 37.4189 13.496L36.5069 3.368C36.3869 2.168 36.5789 1.928 37.5389 1.688C37.8509 1.568 38.1869 1.256 38.1869 0.92C38.1869 0.368 37.7069 0.151999 36.9149 0.151999C35.8349 0.151999 35.9549 0.199999 34.2989 0.199999C33.4109 0.199999 33.1709 0.415999 33.0989 0.775999C33.0509 0.991999 33.0509 1.28 33.0029 1.592C32.9789 1.832 32.9069 2.096 32.7869 2.384L29.3789 11.096C29.3309 11.264 29.2349 11.384 29.1149 11.384C29.0189 11.384 28.8989 11.288 28.8029 11.096L25.2029 2.408C25.0349 2.048 24.9629 1.736 24.8909 1.472C24.8429 1.184 24.7949 0.943999 24.7229 0.751999C24.5549 0.368 24.2429 0.199999 23.3309 0.199999C22.7069 0.199999 21.6989 0.151999 20.9309 0.151999C20.4269 0.151999 19.8989 0.199999 19.8989 0.823999C19.8989 1.16 20.1389 1.424 20.4269 1.544C21.3869 1.832 21.7229 2.144 21.5789 3.296L20.4029 13.28C20.2589 14.72 20.0189 15.2 18.9629 15.44C18.6509 15.536 18.2429 15.776 18.2429 16.208C18.2429 16.76 18.8189 17 19.4669 17ZM43.2567 17.264C44.5047 17.264 45.4647 16.424 45.5607 15.248C45.6807 14 44.8647 13.136 43.6167 13.136C42.3927 13.136 41.4807 14 41.3847 15.248C41.2647 16.424 42.0327 17.264 43.2567 17.264Z" fill="#232320"/>
</svg>
